<svg xmlns="http://www.w3.org/2000/svg"
 xmlns:xlink="http://www.w3.org/1999/xlink"
 width="17px" height="18px"  viewBox="0 0 17 18">
<path fill-rule="evenodd"  fill="#bbbbbb"
 d="M7.9329224,7.9694824 C8.073059,7.784912 8.243103,7.6081543 8.443359,7.4379883 C8.643677,7.267578 8.842529,7.0805664 9.039917,6.8762207 C9.237305,6.6711426 9.406006,6.403076 9.546204,6.0720215 C9.686401,5.7407227 9.75647,5.367676 9.75647,4.9521484 C9.75647,4.4335938 9.647766,3.9729004 9.430298,3.569336 C9.212891,3.1660156 8.892517,2.7824707 8.469238,2.4196777 C8.469238,2.4196777 9.593384,2.4196777 9.593384,2.4196777 C9.593384,2.4196777 10.77771,1.6584473 10.77771,1.6584473 C10.77771,1.6584473 7.1905518,1.6584473 7.1905518,1.6584473 C6.5498047,1.6584473 5.9276123,1.7507324 5.3240356,1.9350586 C4.720398,2.119629 4.1984863,2.4018555 3.7579346,2.7824707 C3.397522,3.0939941 3.1143188,3.4709473 2.9083252,3.9152832 C2.7023315,4.3586426 2.5994263,4.8171387 2.5994263,5.289551 C2.5994263,6.142578 2.8896484,6.847412 3.470398,7.4033203 C4.0510864,7.9592285 4.7647705,8.237549 5.611511,8.237549 C5.7373047,8.237549 5.931885,8.22583 6.1950684,8.203125 C6.075012,8.485107 6.0148926,8.72998 6.0148926,8.937744 C6.0148926,9.174316 6.059143,9.3845215 6.147827,9.569092 C6.236511,9.753174 6.3723755,9.967041 6.555481,10.208252 C4.9936523,10.312256 3.8378906,10.600586 3.088501,11.072998 C2.6651,11.338135 2.3261719,11.669434 2.0716553,12.067383 C1.8170166,12.464844 1.6896973,12.896973 1.6896973,13.36377 C1.6896973,13.7734375 1.7955933,14.150879 2.0072021,14.496094 C2.333374,15.049805 2.8238525,15.446289 3.479004,15.685303 C4.134094,15.924316 4.8391724,16.043945 5.5944214,16.043945 C6.5040283,16.043945 7.3564453,15.878418 8.151611,15.546875 C8.946838,15.215576 9.550537,14.697998 9.962463,13.995361 C10.237061,13.516602 10.37439,13.018555 10.37439,12.499512 C10.37439,12.050049 10.282776,11.640381 10.099731,11.2717285 C9.916565,10.90332 9.69635,10.6032715 9.438965,10.372803 C9.181519,10.142334 8.922607,9.930664 8.6623535,9.737061 C8.401978,9.544678 8.180298,9.348145 7.9971924,9.149414 C7.814026,8.950439 7.7226562,8.747314 7.7226562,8.540283 C7.7226562,8.344482 7.7926025,8.154053 7.9329224,7.9694824 ZM5.6416016,7.4855957 C5.386963,7.335449 5.1724243,7.142578 4.997925,6.90625 C4.823303,6.669922 4.6746826,6.403076 4.551697,6.1064453 C4.42865,5.8095703 4.338501,5.5129395 4.281372,5.2160645 C4.224121,4.9194336 4.1955566,4.6384277 4.1955566,4.373291 C4.1955566,3.791504 4.329956,3.3303223 4.598938,2.989746 C4.7418213,2.7998047 4.9293213,2.6484375 5.161072,2.5361328 C5.392761,2.4238281 5.628784,2.3671875 5.8690186,2.3671875 C6.2349854,2.3671875 6.569702,2.4853516 6.873108,2.7219238 C7.1762085,2.958252 7.4179688,3.2565918 7.5982666,3.6166992 C7.7783203,3.9768066 7.9171143,4.350342 8.014404,4.7365723 C8.111572,5.1228027 8.160278,5.48291 8.160278,5.8171387 C8.160278,6.404785 8.008667,6.863037 7.7054443,7.1914062 C7.5566406,7.347168 7.367798,7.472168 7.139038,7.567627 C6.9101562,7.6625977 6.687134,7.710205 6.4696655,7.710205 C6.17218,7.710205 5.895996,7.635254 5.6416016,7.4855957 ZM5.392761,15.13208 C5.035095,15.048584 4.69458,14.921631 4.371521,14.751709 C4.048218,14.582031 3.786499,14.342041 3.5863037,14.033936 C3.3859253,13.72583 3.2858887,13.369629 3.2858887,12.966309 C3.2858887,12.626221 3.3631592,12.32251 3.5175781,12.054199 C3.6721191,11.786377 3.868042,11.571777 4.1054688,11.410156 C4.3428345,11.249023 4.6203613,11.116455 4.9379272,11.012451 C5.255432,10.90918 5.562866,10.836914 5.8603516,10.796387 C6.157837,10.7561035 6.458252,10.736084 6.7614746,10.736084 C6.944519,10.736084 7.081848,10.741455 7.173462,10.753418 C7.1905518,10.764648 7.294922,10.8396 7.4865723,10.977783 C7.6782227,11.116455 7.796875,11.202881 7.8427124,11.237061 C7.888489,11.2717285 7.99292,11.355713 8.156006,11.487793 C8.319092,11.62085 8.429138,11.719727 8.48645,11.786377 C8.543579,11.852295 8.628052,11.953125 8.739502,12.088867 C8.851074,12.224121 8.928406,12.34375 8.971252,12.447754 C9.01416,12.55127 9.055542,12.672607 9.095703,12.810547 C9.13562,12.94873 9.155762,13.090576 9.155762,13.234619 C9.155762,13.591797 9.077087,13.905518 8.9198,14.176758 C8.762329,14.447266 8.553589,14.658203 8.293335,14.807861 C8.032837,14.95752 7.749756,15.06958 7.4437256,15.144775 C7.1375732,15.219971 6.8185425,15.257324 6.4868164,15.257324 C6.11499,15.257324 5.750122,15.215576 5.392761,15.13208 ZM13.437988,5.8081055 C13.437988,5.8081055 12.536926,5.8081055 12.536926,5.8081055 C12.536926,5.8081055 12.536926,7.6845703 12.536926,7.6845703 C12.536926,7.6845703 10.717651,7.6845703 10.717651,7.6845703 C10.717651,7.6845703 10.717651,8.617676 10.717651,8.617676 C10.717651,8.617676 12.536926,8.617676 12.536926,8.617676 C12.536926,8.617676 12.536926,10.510986 12.536926,10.510986 C12.536926,10.510986 13.437988,10.510986 13.437988,10.510986 C13.437988,10.510986 13.437988,8.617676 13.437988,8.617676 C13.437988,8.617676 15.265869,8.617676 15.265869,8.617676 C15.265869,8.617676 15.265869,7.6845703 15.265869,7.6845703 C15.265869,7.6845703 13.437988,7.6845703 13.437988,7.6845703 C13.437988,7.6845703 13.437988,5.8081055 13.437988,5.8081055 Z"/>
</svg>