<svg id="G_" data-name="G+" xmlns="http://www.w3.org/2000/svg" width="42.06" height="42" viewBox="0 0 42.06 42">
  <defs>
    <style>
      .cls-1 {
        fill: #151515;
      }

      .cls-1, .cls-2 {
        fill-rule: evenodd;
      }

      .cls-2 {
        fill: #fff;
      }
    </style>
  </defs>
  <path id="Afgeronde_rechthoek_1_kopiëren_3" data-name="Afgeronde rechthoek 1 kopiëren 3" class="cls-1" d="M1224.75,664.524h0.04a21.005,21.005,0,1,1,0,42.01h-0.04A21.005,21.005,0,1,1,1224.75,664.524Z" transform="translate(-1203.75 -664.531)"/>
  <path id="fa-google-plus" class="cls-2" d="M1224.41,684.6a4.79,4.79,0,0,1,.74-0.769,10.811,10.811,0,0,0,.86-0.813,3.839,3.839,0,0,0,.74-1.163,4.505,4.505,0,0,0-.17-3.62,6.061,6.061,0,0,0-1.39-1.662h1.62l1.72-1.1h-5.19a9.183,9.183,0,0,0-2.7.4,6.242,6.242,0,0,0-2.27,1.226,4.857,4.857,0,0,0-1.23,1.638,4.78,4.78,0,0,0-.44,1.988,4.053,4.053,0,0,0,1.26,3.057,4.3,4.3,0,0,0,3.09,1.206c0.19,0,.47-0.017.85-0.05a2.677,2.677,0,0,0-.26,1.063,2.057,2.057,0,0,0,.19.913,5.427,5.427,0,0,0,.59.925,10.987,10.987,0,0,0-5.01,1.25,4.618,4.618,0,0,0-1.48,1.438,3.477,3.477,0,0,0-.55,1.875,3.129,3.129,0,0,0,.46,1.638,3.932,3.932,0,0,0,2.13,1.72,8.873,8.873,0,0,0,3.06.519,9.514,9.514,0,0,0,3.7-.719,5.325,5.325,0,0,0,2.62-2.245,4.349,4.349,0,0,0,.59-2.163,4,4,0,0,0-.39-1.775,4.415,4.415,0,0,0-.96-1.3c-0.37-.333-0.75-0.639-1.12-0.919a6.931,6.931,0,0,1-.97-0.85,1.313,1.313,0,0,1-.39-0.881A1.362,1.362,0,0,1,1224.41,684.6Zm-3.31-.7a3.049,3.049,0,0,1-.93-0.838,5.244,5.244,0,0,1-.65-1.157,6.315,6.315,0,0,1-.39-1.287,6.676,6.676,0,0,1-.12-1.22,3.138,3.138,0,0,1,.58-2,2.258,2.258,0,0,1,.81-0.656,2.364,2.364,0,0,1,1.03-.244,2.3,2.3,0,0,1,1.45.513,3.712,3.712,0,0,1,1.05,1.294,7.936,7.936,0,0,1,.6,1.62,6.444,6.444,0,0,1,.21,1.563,2.814,2.814,0,0,1-.66,1.987,2.334,2.334,0,0,1-.82.544,2.481,2.481,0,0,1-.96.207A2.34,2.34,0,0,1,1221.1,683.9Zm-0.36,11.059a6.2,6.2,0,0,1-1.48-.55,2.892,2.892,0,0,1-1.13-1.039,2.768,2.768,0,0,1-.44-1.544,2.529,2.529,0,0,1,.34-1.318,2.682,2.682,0,0,1,.85-0.932,4.674,4.674,0,0,1,1.2-.575,7.626,7.626,0,0,1,1.33-.313,9.826,9.826,0,0,1,1.31-.087,5.034,5.034,0,0,1,.59.025c0.03,0.016.18,0.125,0.46,0.325s0.45,0.325.51,0.375,0.22,0.171.45,0.362a3.8,3.8,0,0,1,.48.432c0.09,0.095.21,0.241,0.37,0.437a2.082,2.082,0,0,1,.33.52,2.908,2.908,0,0,1,.18.524,2.127,2.127,0,0,1,.09.614,2.639,2.639,0,0,1-.34,1.362,2.453,2.453,0,0,1-.91.913,4.547,4.547,0,0,1-1.23.487,5.719,5.719,0,0,1-1.38.163A6.9,6.9,0,0,1,1220.74,694.962Zm11.63-13.486h-1.3v2.714h-2.63v1.35h2.63v2.739h1.3V685.54h2.65v-1.35h-2.65v-2.714Z" transform="translate(-1203.75 -664.531)"/>
</svg>
