<svg id="Pinterest" xmlns="http://www.w3.org/2000/svg" width="42" height="42" viewBox="0 0 42 42">
  <defs>
    <style>
      .cls-1 {
        fill: #151515;
      }

      .cls-1, .cls-2 {
        fill-rule: evenodd;
      }

      .cls-2 {
        fill: #fff;
      }
    </style>
  </defs>
  <path id="Afgeronde_rechthoek_1_kopiëren_3" data-name="Afgeronde rechthoek 1 kopiëren 3" class="cls-1" d="M1224.8,730.118h0.02a21,21,0,0,1,21,21v0.019a21,21,0,0,1-21,21h-0.02a21,21,0,0,1-21-21v-0.019A21,21,0,0,1,1224.8,730.118Z" transform="translate(-1203.81 -730.125)"/>
  <path id="fa-pinterest" class="cls-2" d="M1228.94,743.023a9.532,9.532,0,0,0-9.57,0,9.6,9.6,0,0,0-4.75,8.315,9.367,9.367,0,0,0,1.58,5.289,9.527,9.527,0,0,0,4.13,3.513,8.521,8.521,0,0,1,.16-2.214l1.23-5.226a3.312,3.312,0,0,1-.31-1.525,2.914,2.914,0,0,1,.53-1.775,1.589,1.589,0,0,1,1.31-.713,1.15,1.15,0,0,1,.95.413,1.558,1.558,0,0,1,.34,1.038,3.743,3.743,0,0,1-.15.944c-0.09.371-.21,0.8-0.37,1.287s-0.26.878-.33,1.169a1.435,1.435,0,0,0,.29,1.307,1.5,1.5,0,0,0,1.22.544,2.483,2.483,0,0,0,2.17-1.488,7.144,7.144,0,0,0,.85-3.613,3.556,3.556,0,0,0-1.05-2.663,3.979,3.979,0,0,0-2.92-1.026,4.461,4.461,0,0,0-3.39,1.357,4.511,4.511,0,0,0-1.3,3.244,2.866,2.866,0,0,0,.63,1.888,0.577,0.577,0,0,1,.14.538c-0.02.05-.05,0.175-0.1,0.375s-0.08.33-.1,0.388a0.306,0.306,0,0,1-.47.25,2.792,2.792,0,0,1-1.45-1.388,5.045,5.045,0,0,1-.5-2.288,5.438,5.438,0,0,1,.27-1.676,5.7,5.7,0,0,1,.83-1.619,6.8,6.8,0,0,1,1.35-1.382,6.443,6.443,0,0,1,1.92-.962,7.871,7.871,0,0,1,2.43-.363,6.371,6.371,0,0,1,3.17.788,5.624,5.624,0,0,1,2.14,2.038,5.2,5.2,0,0,1,.74,2.675,8.474,8.474,0,0,1-.65,3.377,5.578,5.578,0,0,1-1.82,2.357,4.461,4.461,0,0,1-2.68.856,2.928,2.928,0,0,1-1.42-.356,2.023,2.023,0,0,1-.9-0.844c-0.38,1.475-.6,2.354-0.67,2.637a7.744,7.744,0,0,1-.97,2.051,9.454,9.454,0,0,0,7.49-.888,9.585,9.585,0,0,0,3.47-3.494,9.784,9.784,0,0,0,0-9.641A9.6,9.6,0,0,0,1228.94,743.023Z" transform="translate(-1203.81 -730.125)"/>
</svg>
