<svg id="Twitter" xmlns="http://www.w3.org/2000/svg" width="42" height="42.032" viewBox="0 0 42 42.032">
  <defs>
    <style>
      .cls-1 {
        fill: #fff;
      }

      .cls-1, .cls-2 {
        fill-rule: evenodd;
      }

      .cls-2 {
        fill: #82f4d3;
      }
    </style>
  </defs>
  <path id="Afgeronde_rechthoek_1_kopiëren" data-name="Afgeronde rechthoek 1 kopiëren" class="cls-1" d="M1224.75,532.538h0.01a21,21,0,0,1,21,21v0.018a21,21,0,0,1-21,21h-0.01a21,21,0,0,1-21-21v-0.018A21,21,0,0,1,1224.75,532.538Z" transform="translate(-1203.75 -532.531)"/>
  <path id="fa-twitter" class="cls-2" d="M1232.11,548.748a3.916,3.916,0,0,0,1.76-2.225,7.783,7.783,0,0,1-2.54.975,4,4,0,0,0-5.77-.094,3.912,3.912,0,0,0-1.17,2.857,4.262,4.262,0,0,0,.1.925,11.053,11.053,0,0,1-4.61-1.244,11.336,11.336,0,0,1-3.66-2.981,4.064,4.064,0,0,0,1.24,5.4,3.965,3.965,0,0,1-1.81-.512V551.9a3.908,3.908,0,0,0,.91,2.57,3.958,3.958,0,0,0,2.31,1.394,4.177,4.177,0,0,1-1.06.137,5.121,5.121,0,0,1-.76-0.062,3.958,3.958,0,0,0,1.42,1.994,3.865,3.865,0,0,0,2.33.807,7.793,7.793,0,0,1-4.98,1.725,8.528,8.528,0,0,1-.96-0.05,11.052,11.052,0,0,0,6.15,1.813,11.606,11.606,0,0,0,4.01-.682,10.087,10.087,0,0,0,3.2-1.825,12.284,12.284,0,0,0,3.73-5.739,11.716,11.716,0,0,0,.47-3.245c0-.233-0.01-0.408-0.01-0.525a8.641,8.641,0,0,0,2.01-2.088,7.921,7.921,0,0,1-2.31.625h0Z" transform="translate(-1203.75 -532.531)"/>
</svg>
