<svg xmlns="http://www.w3.org/2000/svg"
 xmlns:xlink="http://www.w3.org/1999/xlink"
 width="10px" height="18px"  viewBox="0 0 10 18">
<path fill-rule="evenodd"  fill="#bbbbbb"
 d="M6.7088623,1.6584473 C5.718994,1.6584473 4.9266357,1.9541016 4.331726,2.5446777 C3.7366333,3.1357422 3.439331,3.9667969 3.439331,5.0388184 C3.439331,5.0388184 3.439331,6.923584 3.439331,6.923584 C3.439331,6.923584 1.2509766,6.923584 1.2509766,6.923584 C1.2509766,6.923584 1.2509766,9.482422 1.2509766,9.482422 C1.2509766,9.482422 3.439331,9.482422 3.439331,9.482422 C3.439331,9.482422 3.439331,16.043945 3.439331,16.043945 C3.439331,16.043945 6.0652466,16.043945 6.0652466,16.043945 C6.0652466,16.043945 6.0652466,9.482422 6.0652466,9.482422 C6.0652466,9.482422 8.244995,9.482422 8.244995,9.482422 C8.244995,9.482422 8.579712,6.923584 8.579712,6.923584 C8.579712,6.923584 6.0652466,6.923584 6.0652466,6.923584 C6.0652466,6.923584 6.0652466,5.289551 6.0652466,5.289551 C6.0652466,4.8745117 6.151001,4.5634766 6.322754,4.355957 C6.4942627,4.1486816 6.82605,4.0446777 7.318115,4.0446777 C7.318115,4.0446777 8.665405,4.0446777 8.665405,4.0446777 C8.665405,4.0446777 8.665405,1.762207 8.665405,1.762207 C8.202087,1.6931152 7.5498047,1.6584473 6.7088623,1.6584473 C6.7088623,1.6584473 6.7088623,1.6584473 6.7088623,1.6584473 Z"/>
</svg>