<svg xmlns="http://www.w3.org/2000/svg"
 xmlns:xlink="http://www.w3.org/1999/xlink"
 width="17px" height="16px"  viewBox="0 0 17 16">
<path fill-rule="evenodd"  fill="#bbbbbb"
 d="M11.887695,2.010254 C10.877869,1.4165039 9.7751465,1.1196289 8.579529,1.1196289 C7.383667,1.1196289 6.280945,1.4165039 5.27124,2.010254 C4.2613525,2.604248 3.461853,3.409668 2.8726807,4.4260254 C2.2833252,5.4438477 1.9887695,6.5546875 1.9887695,7.758789 C1.9887695,9.102295 2.3521118,10.321045 3.0786133,11.4157715 C3.8051147,12.510986 4.7576904,13.320801 5.9362793,13.845459 C5.913452,13.228516 5.9505005,12.718506 6.0479126,12.314697 C6.0479126,12.314697 6.897522,8.701172 6.897522,8.701172 C6.7543945,8.419189 6.6829224,8.067383 6.6829224,7.6464844 C6.6829224,7.1567383 6.805908,6.7473145 7.051941,6.4194336 C7.2978516,6.090576 7.5982056,5.9265137 7.953003,5.9265137 C8.239075,5.9265137 8.459351,6.0214844 8.61377,6.21167 C8.768311,6.4018555 8.845459,6.640869 8.845459,6.929199 C8.845459,7.10791 8.8125,7.3251953 8.746826,7.581787 C8.680969,7.838379 8.595154,8.135254 8.48938,8.472168 C8.383423,8.809326 8.307678,9.078857 8.261963,9.280518 C8.181702,9.631836 8.24762,9.933105 8.459351,10.183838 C8.670898,10.434814 8.951294,10.560059 9.300293,10.560059 C9.912476,10.560059 10.414429,10.217529 10.8064575,9.531006 C11.19812,8.845703 11.394226,8.012451 11.394226,7.032959 C11.394226,6.278076 11.152466,5.6643066 10.669067,5.1916504 C10.185547,4.718994 9.511841,4.48291 8.648071,4.48291 C7.6811523,4.48291 6.8988037,4.79541 6.3010864,5.4206543 C5.703125,6.0458984 5.404236,6.793701 5.404236,7.6640625 C5.404236,8.182617 5.55011,8.61792 5.841919,8.969238 C5.939209,9.084717 5.970642,9.208252 5.9362793,9.341309 C5.9248047,9.375977 5.9020386,9.462158 5.867737,9.60083 C5.833374,9.73877 5.810425,9.828125 5.79895,9.868408 C5.753113,10.0529785 5.64447,10.110596 5.4729004,10.041504 C5.0323486,9.856934 4.697632,9.537109 4.468872,9.081787 C4.23999,8.626465 4.1256104,8.099121 4.1256104,7.499756 C4.1256104,7.1135254 4.1870117,6.727783 4.3101196,6.3413086 C4.4331055,5.9553223 4.624634,5.581787 4.88501,5.2216797 C5.1453857,4.8615723 5.4571533,4.543213 5.8204956,4.2663574 C6.183716,3.989502 6.6257324,3.7680664 7.1463623,3.60083 C7.666809,3.4335938 8.227539,3.3498535 8.828369,3.3498535 C9.640686,3.3498535 10.370117,3.5317383 11.016663,3.8945312 C11.663086,4.2580566 12.156555,4.727783 12.496948,5.304199 C12.83728,5.880371 13.007568,6.4970703 13.007568,7.1538086 C13.007568,8.018311 12.858765,8.796387 12.561401,9.488525 C12.263794,10.1796875 11.843262,10.7229 11.299805,11.117676 C10.756226,11.512451 10.138367,11.709961 9.446228,11.709961 C9.097229,11.709961 8.771179,11.628174 8.4678955,11.463379 C8.164612,11.299316 7.9558105,11.10498 7.8414307,10.880127 C7.5840454,11.9001465 7.4295654,12.508057 7.3780518,12.703857 C7.269287,13.113281 7.0461426,13.586182 6.70874,14.121582 C7.3207397,14.3063965 7.944458,14.398682 8.579529,14.398682 C9.7751465,14.398682 10.877869,14.101318 11.887695,13.508057 C12.897339,12.914307 13.6970215,12.109131 14.286255,11.091797 C14.875366,10.074707 15.170166,8.963379 15.170166,7.758789 C15.170166,6.5546875 14.875366,5.4438477 14.286255,4.4260254 C13.6970215,3.409668 12.897339,2.604248 11.887695,2.010254 Z"/>
</svg>